<?xml version="1.0" encoding="utf-8"?>
<!-- Generator: Adobe Illustrator 22.0.1, SVG Export Plug-In . SVG Version: 6.00 Build 0)  -->
<svg version="1.1" xmlns="http://www.w3.org/2000/svg" xmlns:xlink="http://www.w3.org/1999/xlink" x="0px" y="0px"
	 viewBox="0 0 7786.1 2699.1" style="enable-background:new 0 0 7786.1 2699.1;" xml:space="preserve">
<style type="text/css">
	.st0{display:none;}
	.st1{display:inline;fill:#3F3E3F;}
	.st2{fill:#16133B;}
	.st3{fill:#675D96;}
	.st4{fill:#FFFFFF;}
</style>
<g id="Layer_2" class="st0">
	<rect class="st1" width="7786.1" height="2699.1"/>
</g>
<g id="Layer_1">
	<path class="st2" d="M1615.5,1912.9c-311.4,1.3-591.2-175.5-721.3-450.9c-34.1-72.2-56-147.9-66.7-227.1
		c-47.2-350.5,150-686.1,477.9-822.4c68.7-28.6,140-47.7,213.9-55.2c226.6-22.9,429.3,36.1,604.2,182.9
		c135.7,113.8,221.8,259,259.6,432.1c13.6,62.1,19.5,125.2,16.3,188.7c-11.6,229.1-104.9,418.6-279.4,567.3
		c-104.6,89.1-225.8,145-360.6,171C1710.2,1908.7,1660.5,1913.8,1615.5,1912.9z M1136.7,588.3c-1.3-0.2-2.5,0-3.6,0.7
		c-1.2,0.4-2.8,0.4-3.7,1.2c-24.9,21-36,48.4-36.7,80.4c-0.2,11.4,2.4,22.4,7.9,32.5c2.2,4.1,5.1,7.9,4.2,12.9l-0.5,0.6
		c-8.3-4-12.9-11.2-16.2-19.4c-6.5-15.7-9-32-6.3-48.9c0.6-3.9,1.7-7.8,2.1-11.8c0.8-6.6-2.1-8.9-7.9-6.3
		c-22.3,10.2-39.9,26.4-55.2,45c-25.7,31.4-42.3,67.4-53.1,106.3c-1.4,5-4.5,9.9-2.7,15.5c-0.6,3.9-1.1,7.9-2,11.8
		c-4,18.2-7.2,36.6-7.4,55.3c-0.2,15.9-0.2,31.9,0,47.8c0.4,28.7,4.1,57,10.8,85c5.5,22.8,7.7,45.9,6,69.4
		c-1.1,15.5-4.5,30.7-14.6,42.8c-18.8,22.2-30.9,48.1-43.4,73.7c-4.2,8.7-9,15.7-16.6,21.6c-11,8.6-20.6,18.9-28.4,30.6
		c-9.8,14.7-12.2,30.9-8.7,47.8c4.2,20.2,31.8,44.3,52.6,46.7c10.6,1.2,21.4,1.1,31.7-2.3c11.4-3.7,22.7-7.7,33.7-12.4
		c8.5-3.6,16.2-10.7,24.9-12.1c9.4-1.6,19.5,1.8,29.4,2.7c32.9,3.2,61.7-5.6,86-28.7c24.5-23.3,43.5-50.2,57.2-81
		c7.9-17.6,15.6-35.3,20.6-54c1.5-5.6,4.6-9.3,10.8-10.2c3.3-0.5,6.4-1.9,9.6-2.8c43.1-12.7,77.4-37.8,103.1-74.5
		c16.2-23.1,27.5-48.5,35.7-75.4c3-10,3.2-10.4,13.7-10.3c15.4,0,30.5-1.9,45.7-4.1c22-3.3,41.4-13.1,61.5-22.2
		c39.5-17.8,74.3-41.5,103.7-73c12-12.8,25.9-22.9,41.4-30.9c11.8-6.1,23.9-11.6,35.9-17.3c13.4-6.4,27.1-10.2,42.3-8.9
		c10.6,0.9,21.3,0.1,32,0.3c18,0.3,35.9-1.5,53.7-3.9c14-1.9,27.1-6,38.4-15.3c7.7-6.3,16.1-11.8,24.5-17.2
		c21.8-14.3,45.2-25.1,70.4-32.3c9.6-2.7,18.1-2.2,27,1.7c25.1,10.9,51.4,17.9,78.1,23.7c7.2,5.5,15.4,4.5,23.5,3.5
		c13.4-0.2,26.8-0.3,40.2-0.5c4.6,1.4,8.8,1,12-3c8.4-4,16.9-7.8,25.1-12.2c10.2-5.4,20.8-8.9,32.4-8.8c8.7,0.1,17.3,0.4,25.9,0.5
		c3.7,0.1,6.9-1.7,7.7-5.1c2.6-11.2,3.6-21.6-5.7-31.5c-8.7-9.3-18.4-17.1-28.1-25c3.5-6.9,9.4-11.7,11.8-18.8
		c3.8-11.4,1.3-19.8-8.9-25.4c-2.9-1.6-6-3-9.2-3.9c-10.4-2.9-19.7-7.8-28.7-13.5c-6.2-3.9-13-6.5-20.2-8.2
		c-25.8-6-51.5-5.4-77.2,0.5c-11.7,2.7-22.4,6.9-31.8,15.5c-16.4,15-36.1,25-57.9,29.8c-19.5,4.3-39.3,8.2-59.3,3.9
		c-17.5-3.8-34.9-8.4-52.3-12.8c-47.7-12.1-94.4-27.6-143.2-35.3c-34.1-5.4-67.8-13.4-102.5-15.5c-16.6-1-33.1-2.3-49.8-2.5
		c-12.5-0.1-24.8-2-36-9.1c2.4-6.8,7.7-9.9,11.8-14.1c5.1-5.2,10.8-9.9,15.7-15.4c4.8-5.3,4.4-10-0.2-16.1
		c-12.5-16.3-28.5-27.6-47.6-35.1c-8.2-3.2-15-2.6-22.6,2.1c-17.6,11-37.1,18-56.9,23.8c-53.3,15.7-107.6,24.3-163.3,24.3
		c-15.3,0-30.7,0.2-45.9,1.6c-19.2,1.8-35.3,10.4-47.4,25.9L1136.7,588.3z M1604.4,1661.1c9,4.6,18.5,3.9,28.1,2.8
		c19.9,0.6,39.9-0.1,59.5,4.8c4.2,1.1,9.1,1.5,11.6,7.3c-4.1,4.1-8.2,8.4-12.4,12.5c-4.8,4.6-9.9,8.9-14.4,13.8
		c-5.7,6.1-5.7,10.8-0.6,17.6c11.8,15.9,27.4,26.8,45.5,34.5c8.6,3.7,16.1,3.3,24.5-1.6c10.9-6.2,22.5-11.7,34.3-15.7
		c51.2-17.5,104-27.4,158.1-29c21.3-0.7,42.5-0.7,63.8-0.8c17.3-0.1,32.9-5.4,46.3-15.8c13.1-10.2,25.3-21.5,37.8-32.5
		c2-1.7,3.8-3.8,5-6.2c13.8-28.6,20.6-57.6,5.2-87.9c3-0.5,5.9-1.1,8.9-1.6c17,23,11.7,49.3,10.3,74.9c5.8,0.9,9.3-2.6,13.1-5
		c33.2-20.6,57.1-49.6,75-83.9c18.3-35.1,30.3-72.4,35.9-111.6c7.8-54.6,5.6-108.9-6.3-162.8c-5.2-23.6-7.6-47.4-5.3-71.5
		c1.4-14.8,4.5-29.6,14.3-40.9c18.7-21.4,31-46.4,43.5-71.4c4.8-9.7,10.2-18,19.1-24.7c12.2-9.3,22.8-20.5,30.4-34.1
		c14.4-25.6,9.4-54.5-11.3-70.4c-1.6-1.2-3.3-2.3-4.6-3.8c-16.2-18.2-36.6-19.9-58.6-14.8c-17.6,4.1-34.5,10.4-50.1,19.4
		c-8.5,4.9-16.9,7.7-26.5,4.1c-1.9-0.7-3.9-1.1-5.8-1.4c-34.6-4.9-66,1.1-92.9,25.5c-25.1,22.7-44.5,49.4-59,79.8
		c-8.6,18-16.4,36.4-22.1,55.6c-1.7,5.7-4.2,9.5-10.4,10.4c-3.9,0.6-7.7,2.1-11.6,3.2c-34.8,10.1-64.2,28.6-88.4,55.6
		c-22.7,25.2-37.5,54.8-48.6,86.5c-1.3,3.8-2.3,7.6-3.8,11.4c-1,2.6-3.1,4.3-6,4.5c-4,0.3-8,0.3-12,0.5
		c-34.9,1.6-69.1,5.4-99.5,24.8c-0.5,0.4-1.2,0.5-1.9,0.7c-39.6,15.8-73.9,39.5-103.3,70.2c-14.1,14.7-30.3,25.9-48.5,34.5
		c-9.6,4.5-19.5,8.6-29,13.4c-15.2,7.8-31.1,11.1-48.2,9.3c-6.6-0.7-13.3-0.7-20-0.5c-22.6,0.5-45.3,0-67.7,4.2
		c-11.4,2.2-21.7,5.9-30.9,12.9c-8.5,6.4-17.3,12.4-26.3,18.1c-22.7,14.3-46.7,25.4-72.9,31.9c-7.5,1.9-14.2,1.6-21.3-1.4
		c-12.9-5.3-26-10.1-39.2-14.9c-26.5-9.7-54.1-14.1-82.2-15.2c-17.4-0.7-35.1,0.8-50.4,10c-21,12.5-42.9,17.6-66.9,13.1
		c-0.7-0.1-1.3-0.2-2-0.2c-3.8-0.1-6.8,2.2-7.7,5.3c-2.8,10.4-4.7,20.9,4.3,29.9c4.7,4.7,8.9,9.9,13.4,14.7
		c4.5,4.7,11.4,6.6,14.7,12.2c0,4.3-3.5,5.8-5.2,8.6c-2,3.4-4.4,6.7-5.9,10.4c-4.5,11-2,20.7,8.7,25.1c16.6,6.8,32.4,15.1,48.4,23.3
		c5.2,2.7,11.4,3.5,17.3,4.6c26.7,4.9,53,3.2,79.1-3.9c6.5-1.8,12.4-4.4,17.4-9.2c8.7-8.3,18.8-15,29.6-20.2
		c29.4-14.2,60.2-21.7,92.8-14.7c24,5.2,47.8,11.7,71.6,17.9c34.7,9,68.5,21.7,104.2,27.3c3.3,3.9,7.4,4.3,12,3
		c2.6,0.4,5.3,0.8,7.9,1.2c3.3,4.1,7.5,4.1,12.1,2.8c2.7,0.4,5.3,0.8,8,1.1c3.3,3.9,7.5,4.1,12.1,2.8c2.7,0.3,5.3,0.7,8,1
		c4.6,4.6,10.1,4.3,15.8,3.2c1.4,0.2,2.9,0.4,4.3,0.6c5.9,4.7,12.7,4.6,19.7,3.5C1599,1660.5,1601.7,1660.8,1604.4,1661.1z"/>
	<path class="st2" d="M4616,654.7c-3.9,1.4-6.4,2.5-8.9,3.1c-7.7,1.9-15.4,3.5-23.2,5.3c-5.5-6.4-4.7-14.8-7.2-22.2
		c-2.8-8.2-4.8-16.6-7.5-24.8c-25.5-77.4-78.6-124.6-157.4-143.8c-28-6.8-56.5-9.2-85.2-9.4c-96-0.6-191.9-1.1-287.9-1.6
		c-4,0-8,0.1-12,0.2c-3.9,0.1-6.1,2.3-6.4,6.1c-0.3,4.7-0.2,9.3-0.2,14c0.5,146,0.9,292,1.4,437.9c0.1,22.5-1,20.3,20.7,20.4
		c90.7,0.2,181.3,0.3,272,0.7c28.7,0.1,55.4-7.3,80-21.7c33.8-19.8,53-49.7,58.6-88.3c1.4-9.8,2.4-19.6,3.6-30.3
		c8.5-0.4,16.4-0.9,24.3-1c4.9,0,6.9,3,6.6,7.8c-0.2,4,0,8,0,12c0,108,0,216,0,323.9c0,24.4,2.3,21.5-23.2,22c-7.1,0.2-8.2-1-8-7.9
		c0.6-17.3,0.4-34.5-2.9-51.7c-8.7-45.5-37.2-88-104.9-96.7c-11.9-1.5-23.9-1.7-35.9-1.7c-90-0.1-180-0.1-269.9-0.1
		c-4.7,0-9.3,0.1-14,0.3c-3.7,0.2-6.3,2-6.4,6c-0.2,4.7-0.3,9.3-0.3,14c0,126,0,252-0.1,377.9c0,12.8,1,25.4,4.6,37.5
		c10.3,34.8,32.8,59,66,73c19.2,8.1,39.4,12.6,60.3,12.8c78,0.6,156,2.1,233.9-1.3c38.6-1.7,77.2-3.1,115.4-10.2
		c15.7-2.9,31.5-5.3,44.7-15.7c2.5-2,6.1-2.7,9.2-3.9c46.8-18.1,83.6-48.9,112.8-89.2c17.3-23.9,30.6-49.9,40.5-77.7
		c3.7-10.3,4-10.5,14.2-9.9c10.6,0.6,21.3-0.6,31.6,3.1c2.2,11.1-3.8,20.5-7,30.3c-22,68.4-44.5,136.7-66.8,205
		c-1.4,4.4-3,8.8-4.3,13.3c-1.2,3.8-4,5-7.5,5.1c-4.7,0.1-9.3,0.1-14,0.1c-100.6,0.2-201.3,0.4-301.9,0.5
		c-126.6,0.1-253.3,0.2-379.9,0.3c-102.6,0.1-205.3,0.5-307.9,0.7c-3.3,0-6.7,0-10,0c-17.6-0.1-17.9-0.2-16.6-17.6
		c0.5-7.2-2.2-16.1,2.8-21.3c5.3-5.5,13.9-1,21-0.9c28.1,0.3,55.8-1.5,83.5-6.5c35.5-6.3,56.8-27,65.8-61.3
		c7.9-30.4,12.9-61.2,13-92.7c0.1-170.6,0.3-341.3,0.5-511.9c0.1-103.3,0.3-206.6,0.4-309.9c0-13.3-0.6-26.5-4-39.6
		c-8.7-33-30.2-52.4-62.7-60.2c-20.1-4.8-40.8-6.6-61.4-7.8c-14.6-0.8-29.3-0.7-44-1.2c-7.1-0.2-8.4-1.6-8.9-7.9
		c-0.2-3.3-0.2-6.7-0.2-10c-0.2-24.2-2.7-21.5,20.9-21.5c309.3,0,618.6,0,927.8,0c24.4,0,22.1-2.6,22.2,22.8
		c0.3,67.3,0.5,134.6,0.7,202C4616,639.9,4616,646.5,4616,654.7z"/>
	<path class="st2" d="M5960.4,1582.8c-78.7,0-157.3,0-236,0c-21.5,0-20.2,1.1-19.7-19c0.5-22.2-2-20.1,20.9-19.4
		c21.3,0.6,42.6,0.5,63.7-4.1c20.9-4.5,38.9-13.1,51.5-31.4c12.3-18,15.3-36.8,6.6-56.8c-43-98.2-81.7-198.2-123-297.1
		c-0.5-1.2-1.1-2.5-1.4-3.7c-2.2-8.3-7-12.3-16-11c-4.6,0.7-9.3,0.1-14,0.1c-140.7,0-281.3,0-422,0c-4,0-8-0.1-12,0
		c-13.1,0.2-13.2-2.2-18.7,12.5c-29.7,79.9-59.5,159.7-89,239.6c-8.6,23.4-13.1,47.8-10.8,72.6c2.9,31.3,17,55.6,48.2,67.1
		c21.5,7.9,44,10.6,66.7,11.4c18.7,0.7,37.3,0.2,55.9-2.2c6.8-0.9,8.7,0.8,8.9,7.3c0.3,9.3,0.2,18.7,0.1,28c0,2.9-1.9,5-4.9,5.4
		c-4,0.4-8,0.5-12,0.5c-144.7,0-289.3,0-434,0c-17.8,0-17.9,0.8-17.4-17.3c0.9-28.5-3.3-23.6,24.5-25c32.9-1.6,64.6-8.8,94.2-23.7
		c36.4-18.3,60.9-46.7,72.8-85.8c2.3-7.6,5.1-15.1,8.3-22.4c146.6-341.3,293.3-682.6,440-1023.9c10.1-23.5,5.7-18.9,28.4-19.5
		c14.7-0.4,29.3-0.1,44-0.2c4.5,0,7.4,1.7,9.2,6c2.5,6.2,5.3,12.2,8,18.3c155.1,355.8,310.5,711.5,465,1067.6
		c19.5,44.9,53.2,68.1,98.1,79.5c20.9,5.3,42.2,5.5,63.6,5.1c7-0.2,8.8,1.2,8.6,7.7c-0.8,41.8,7.8,33.9-32.2,34.2
		c-74.7,0.5-149.3,0.1-224,0.1C5960.4,1583.1,5960.4,1583,5960.4,1582.8z M5271.1,1078.7c3.3,0.2,6,0.5,8.6,0.5
		c132-0.2,264-0.3,396-0.5c2.7,0,5.3,0,8-0.2c3.1-0.3,5.1-2.1,4-5.2c-1.7-5-3.8-9.9-5.9-14.8c-50.6-120.3-101.3-240.5-152-360.8
		c-15-35.6-30.1-71.1-44.8-106.8c-2.2-5.2-5.4-7-10.6-7c-5,0-9.2,0.9-10.7,6.7c-0.8,3.2-2.4,6.2-3.7,9.3
		c-61.3,153.3-122.6,306.6-183.8,459.9C5274.1,1065.2,5270.6,1070.3,5271.1,1078.7z"/>
	<path class="st2" d="M2645,1308.5c5.1-0.8,9-1.5,12.9-2c22.8-2.9,22.8-2.9,30.1,19.1c20.3,60.8,53.5,112.9,103.5,153.7
		c36.3,29.5,77.4,48.8,123,59.4c45.1,10.4,90.4,16.3,136.7,10.1c49.1-6.6,94.4-22.4,133.6-53.6c3.1-2.5,6.4-4.8,9.7-7.1
		c40.5-27.6,65-66.3,76.8-113.1c6.9-27.2,9.7-55,6.2-83.3c-2.7-21.6-9.5-41.4-20.3-60.1c-11.1-19.2-25.3-35.9-41.3-51.2
		c-30.6-29.3-66-51.7-103.5-71c-20.2-10.3-41.1-18.7-62.7-25.7c-66.7-21.4-131.3-47.9-191.5-84.3c-34.4-20.7-66.5-44.3-94.7-73.2
		c-17.3-17.7-33.1-36.7-44.3-58.9c-12.6-25.1-21.2-51.7-28.3-78.8c-20.7-78.9-11.6-154.6,26.4-226.6c23.3-44,56.8-78.7,98.7-105.3
		c39.8-25.3,83.3-41.5,129-52.2c73.2-17,147.5-21.6,222.5-18.3c48.6,2.1,97.1,6.6,145.1,14.4c13.1,2.1,26.2,5,39.3,7.2
		c5.6,0.9,7.7,3.8,8.4,9.2c2.2,17.2,4.8,34.3,7.2,51.5c6.5,47.5,12.9,95.1,19.3,142.6c0.3,1.9-0.2,3.9-0.3,6.3
		c-8.5,3.6-17.1,1.1-25.6,0.7c-16.2-0.7-16.3-0.9-19.9-17.4c-10.8-48.6-38.1-85.5-78.1-114.3c-40.9-29.4-86.7-42.5-136.2-46.5
		c-28.7-2.3-57.3-2.2-85.9,0.5c-34.8,3.3-68.2,11.8-99.1,28.6c-38.1,20.7-67.1,49.9-84,90.4c-1.3,3.1-2.7,6.1-4.2,9.1
		c-21.6,45.5-23.7,92.4-8.9,140.1c3.3,10.8,7.8,21.3,12.6,31.5c8.5,18.3,20.2,34.1,35.6,47.6c57.9,51.1,122.6,91.7,192.4,124.4
		c34.4,16.1,69.8,29.7,106.1,40.9c50.6,15.7,98.3,37.5,141.4,68.6c43.3,31.2,78.5,69.6,104.2,116.8c23.8,43.8,30.5,90.4,25.8,139.3
		c-7.8,81-44.2,147-105,200.2c-31.3,27.4-66,49.7-103.9,66.7c-41.3,18.6-83.9,34.1-127.9,45.1c-61.4,15.3-123.8,17.8-186.6,12.7
		c-79.5-6.4-156.5-23.8-231.8-49.9c-6.3-2.2-12.3-5.3-18.7-6.8c-8.8-2.1-11.3-7.9-12.3-15.9c-2.1-16.5-4.9-32.9-7.3-49.4
		c-8.2-54.7-16.3-109.4-24.4-164C2644.7,1314.3,2645,1312.4,2645,1308.5z"/>
	<path class="st2" d="M7467.5,1325.1c1.5,4.7-0.4,8.4-1.4,12.2c-21,75.7-42,151.4-63,227.1c-1.1,3.8-2.2,7.7-3.3,11.5
		c-1.2,4.4-4.1,6.7-8.6,6.8c-4.7,0.1-9.3,0.1-14,0.1c-331.3,0-662.6,0-994,0c-25,0-21.8,1.8-21.9-23c0-3.3,0.1-6.7,0.1-10
		c-0.1-4.1,2.3-6.2,6-6.3c5.3-0.1,10.7,0.4,16,0.5c26.1,0.9,51.9-1.5,77.3-7.6c11.7-2.8,22.9-7,33.6-12.5c12.6-6.5,23.6-15,32-26.6
		c9.2-12.7,14.1-26.6,14-42.8c-0.3-86.7,0-173.3,0.1-260c0.3-218,0.6-436,0.9-654c0-3.3-0.1-6.7,0-10c1.1-22.6-9.2-39.7-26.2-53.4
		c-12.1-9.8-26.1-15.9-40.9-20.4c-22.5-6.8-45.6-9.4-69.1-9.4c-10.7,0-21.3-0.2-32-0.5c-2.9-0.1-4.8-2-5.2-5c-0.3-2.6-0.4-5.3-0.4-8
		c0.6-29.8-4-25.5,25.2-25.5c169.3-0.1,338.7-0.1,508,0c24.6,0,22.7-2.8,22,22.5c-0.2,9.2,3.1,20.6-2.8,27.1c-6.2,7-17.6,2-26.6,2
		c-29.5,0.1-58.5,3-86.7,12.3c-13.3,4.4-25.9,10.4-37,19.3c-18.1,14.5-28.8,32.9-30.5,56.2c-0.6,8-0.8,16-0.8,24
		c-0.2,270-0.1,540-0.9,810c-0.1,40.1,14.8,72.4,41.6,100.4c24.4,25.4,55.1,39,89.1,46.2c18.4,3.9,37,5.1,55.7,4.6
		c70.7-1.7,141.3-0.1,212,0.1c46.5,0.2,91.4-8.5,134.8-24.7c22.6-8.4,43.7-19.6,63-34.2c22.7-17.1,40.7-38.2,53.7-63.6
		c13.3-26.1,27.2-51.9,40.6-78c3-5.9,6.7-9.4,13.8-8.8C7450.6,1324.7,7459.3,1322.8,7467.5,1325.1z"/>
	<path class="st3" d="M2819.2,1933.6c-0.2,7.9-5.3,12.7-8.7,18.1c-30.2,46.4-63.1,90.8-98.6,133.4c-93.2,112-200.7,208-322.7,287.5
		c-157.5,102.7-328.6,172.4-513.3,208.3c-65.5,12.7-131.5,20.8-198.1,24.5c-42.7,2.3-85.3,3.3-127.9,1.7
		c-186.4-7-365.4-46.7-536.2-122.4c-181.6-80.5-340.1-193.3-475.4-338.6c-141.5-151.9-245.6-326.3-312.4-522.8
		c-26.4-77.7-45.6-157.2-58.3-238.4c-12.5-80.5-18.9-161.5-17.6-242.9c3.7-240.3,62.2-466.3,177.5-677.5
		c31-56.8,65.9-111.2,104.3-163.3c2-2.7,3.9-5.4,6.1-7.9c2.2-2.6,4.8-4.6,8.5-4.6c11.3,0.1,22.6,0.1,34,0.2c2.8,0,4.5,3.4,3,5.7
		c-3,4.4-6,8.8-9.2,13C358.5,458.9,277.1,626.9,229.6,811.2c-19.5,75.6-32,152.4-38.5,230.3c-6.1,72.6-6.8,145.2-1.9,217.7
		c7.2,106,26.2,210,57.3,311.8c54.6,178.8,141.3,340.4,260.1,484.7c104.8,127.3,228.2,233,370,317.2
		c126.5,75,261.4,128.9,404.8,161.2c55.9,12.6,112.4,21.6,169.4,27.6c69.1,7.3,138.4,8.8,207.6,5.9c55.9-2.4,111.5-8.5,166.8-17.7
		c92.3-15.3,182.1-39.5,269.5-72.8c141.9-54.1,271.7-129.1,389.2-225.3c107-87.5,199.3-188.5,276.9-303
		c12.8-18.9,8.2-16.1,30.3-16.1C2800.2,1932.5,2809.4,1931.6,2819.2,1933.6z"/>
	<path class="st3" d="M4980.3,1793c-857.9,0-1715.9,0-2573.8,0c-7.3,0-14.7,0-22-0.2c-4.6-0.1-7.5-2.3-7.5-7.3c0-3.3-0.2-6.7,0.1-10
		c0.4-3.8,2.9-5.8,6.6-6c2.7-0.2,5.3-0.2,8-0.2c6,0,12,0,18,0c1714.5,0,3429,0,5143.6,0c6,0,12,0,18,0c11.9,0,15-1.1,14.6,14.6
		c-0.2,7.3-1.8,8.8-9.8,9c-6.7,0.2-13.3,0.1-20,0.1C6697.5,1793,5838.9,1793,4980.3,1793z"/>
	<path class="st3" d="M1379,289.5c-8.6,5.2-17.7,6.5-26.5,9C1183,346,1039.8,435.9,923.4,567.6c-108.8,123.1-178.2,266-207.6,427.9
		c-12.8,70.4-17.3,141.3-12.9,212.9c5.5,89.9,23.6,176.8,55.3,260.9c38.3,101.4,93.4,192.8,165.2,274.1
		c78.2,88.6,170.3,158.9,276.2,210.9c79.4,39,162.9,65.4,250.5,79.1c59.5,9.3,119.2,13.4,179.3,10.5c109.5-5.3,215-28.8,315.5-73
		c22.5-9.9,44.5-21.1,66.5-32.3c7.3-3.7,14.3-6.3,22.7-6.1c14,0.5,28,0.1,41.8,0.1c2.8,6.3-2.8,6.9-5.5,8.6
		c-54,33.5-111.1,60.6-170.8,82c-68,24.4-138,40.4-209.8,48c-58.4,6.1-116.9,6.8-175.6,1.9c-176.6-14.7-336.1-74.9-477.1-181.7
		c-181.9-137.8-297.4-319.2-347.3-541.9c-16.8-75.1-23.5-151.5-20-228.4c9.1-202,75.3-382.9,201.7-541.1
		c100.3-125.5,225.6-217.9,374.1-279c2.5-1,5-1.9,7.4-3c16-7.4,32.6-10.3,50.4-9.6c23.3,1,46.6,0.3,70,0.5
		C1374.9,288.9,1376.6,289.3,1379,289.5z"/>
	<path class="st2" d="M1244.9,2311.6c-5.9,21.3-11.1,40.5-16.4,59.6c-1.8,6.4-3.4,12.8-5.3,19.2c-0.9,2.8-3.3,4.5-6.1,3.8
		c-15.4-4.1-30.7-8.4-46-12.9c-3-0.9-3.5-3.6-3.1-6.5c0.3-2,0.6-4,1.1-5.9c15.4-56.4,30.9-112.8,46.4-169.2c0.9-3.1,0.8-6.7,5.5-9.8
		c14.7,4,30.7,8.3,46.6,12.6c5,1.4,5.6,5.1,4.4,9.4c-3.8,14.1-7.7,28.2-11.6,42.3c-0.9,3.2-2,6.3-2.8,9.6
		c-2.3,8.9-1.6,10.3,7.1,12.7c23,6.4,46.1,12.6,69.1,18.9c5.6-6.1,5.9-13.5,7.9-20.4c3.9-14.1,7.7-28.2,11.7-42.3
		c1.1-3.8,4-5.6,7.5-4.6c14.8,3.8,29.5,8,44.2,12c3,0.8,4.2,3,3.9,5.9c-0.3,2.6-0.7,5.3-1.4,7.8c-15,55.1-30.1,110.3-45.2,165.4
		c-0.7,2.6-1.4,5.1-2.1,7.7c-1.1,3.9-3.8,5.3-7.5,4.4c-10.3-2.7-20.5-5.5-30.8-8.3c-18.8-5.2-18.8-5.2-13.9-23.4
		c5.2-19.3,10.5-38.5,15.7-57.7c1.7-6.5,0.9-8.3-5.5-10.1C1294.4,2325.2,1270.7,2318.7,1244.9,2311.6z"/>
	<path class="st2" d="M2097.7,2337.1c-37.1-0.4-63.3-14.8-81.4-43.6c-10.8-17.2-17.2-36.2-18.7-56.3c-1.9-25.1,5.2-48.1,23-65.9
		c30.9-30.9,68.5-45,112.5-39.6c20.7,2.6,38.1,12.4,51.4,28.2c21.5,25.6,31.8,55.3,28,88.9c-2.6,22.8-13.7,41.7-31.4,56.2
		C2155.9,2325.4,2126.8,2335.7,2097.7,2337.1z M2051.6,2219.6c0.5,22.7,7.6,43.1,22.6,60.2c14.6,16.8,33.9,21.1,54.1,13.1
		c20.1-7.9,32.1-24.6,31.2-46.3c-0.8-22.5-8.4-43-23.6-59.9c-14.4-16.1-34.7-20.3-54.5-12.2
		C2062.3,2182.4,2050.9,2198.7,2051.6,2219.6z"/>
	<path class="st2" d="M1697.1,2445.8c-7.6-0.8-17.7-0.9-27.4-2.9c-45.1-9.5-72.5-41.2-76.4-87.9c-1.2-14.8,0.1-29.4,4.3-43.5
		c9.5-31.9,31-52.4,62.5-61.8c26.1-7.7,52.8-8,78.9-0.2c37.1,11.1,59.5,35.9,66.2,74.7c3,17.5,2.5,34.7-2,51.5
		c-10.6,40.3-41.6,63.3-81.9,68.5C1714.3,2445.3,1706.9,2445.3,1697.1,2445.8z M1648.9,2346.9c-0.5,9.5,1.8,22.5,7.6,34.7
		c8.6,17.9,23.1,26.8,42.9,27.1c19.9,0.3,35.3-7.9,43.7-25.8c11.9-25.4,11.9-51.7-0.7-76.9c-8.9-17.8-24.9-25.5-44.4-24.7
		c-18.7,0.8-33,9.5-41.2,26.8C1651.5,2319.1,1649.2,2330.7,1648.9,2346.9z"/>
	<path class="st2" d="M493.8,1644.1c-14.2,23.4-27.6,45.5-41,67.7c-3.1,5.1-6.1,10.3-9.3,15.4c-1.4,2.3-5.1,1.6-6.4-1.1
		c-0.5-1.2-0.8-2.5-1.3-3.8c-4.5-11.8-8.7-23.7-13.8-35.2c-3.6-8.3-2.4-14.8,2.6-22.2c11.9-17.6,22.3-36.3,34.7-53.5
		c7.6-10.5,2.9-18.6-1.6-27.4c-1.4-2.8-4.2-2.2-6.9-1.2c-13.6,5.3-27.2,10.6-41,15.6c-20.4,7.4-17.7,10.9-25.9-11.6
		c-3.1-8.6-8.3-16.7-8.7-26.2c7.2-7.6,17.4-8.8,26.4-12.4c43.9-17.2,88-34,132-50.9c5-1.9,10-3.7,15-5.3c2.8-0.9,5.2,0,6.8,2.6
		c0.4,0.6,0.6,1.2,0.8,1.8c11.1,29.9,22.3,59.7,33.4,89.6c3.8,10.2,4.4,20.8,3.3,31.5c-1.9,18.8-11.5,32-29,39.7
		c-19.7,8.6-38.7,8.2-56.9-3.9C503.3,1650.7,499.5,1648,493.8,1644.1z M537.5,1551c-15.3,3.5-29.1,9.7-43,15.6
		c-1.3,0.6-2.8,3.6-2.4,4.9c4,12.6,7.7,25.6,17.2,35.5c7.9,8.3,20.5,9.3,31.2,3.3c9.2-5.1,13.1-14,10-25.6
		C547.5,1573.2,543.9,1561.9,537.5,1551z"/>
	<path class="st2" d="M356.4,1262c0-22.5-0.1-45.8,0.1-69c0-5.7-2.8-8.1-7.8-9.9c-8.8-3.1-17.3-6.8-26-10.3
		c-3.5-1.4-5.1-3.9-5.2-7.6c0-2-0.3-4-0.1-6c1-13.6-2.4-27.5,3-40.8c13.3,1.9,24.8,8.8,37,13.8c45,18.2,89.8,36.9,134.7,55.4
		c3.7,1.5,7.3,3.2,11.1,4.5c5,1.7,7.7,4.8,7.6,10.3c-0.2,16.6-0.3,33.3-0.6,49.9c0,3.6-1.7,6.3-5.1,7.8c-2.4,1.1-4.9,2.1-7.4,3.1
		c-56.3,22.2-112.6,44.4-168.9,66.7c-3.7,1.5-7.1,3.7-11.9,1.8c0-17,0-34.2,0-52C328.8,1271.6,343.4,1270.5,356.4,1262z M392.7,1200
		c-0.7,15.7-0.6,29.4-0.4,43.1c0.1,5,2.7,6.6,8,4.6c18.5-6.7,36.9-13.7,56.8-21.1c-2.6-2-4-3.7-5.8-4.3
		C432.4,1214.9,413.4,1207.8,392.7,1200z"/>
	<path class="st2" d="M604.8,481.3c3.7,5.8,6.9,10.9,10.1,15.8c20.2,30.6,40.4,61.1,60.7,91.6c7.7,11.6,9,11-0.9,24.2
		c-7.9,10.6-15.6,21.5-23.1,31.9c-4.7-0.4-6.1-3.5-7.8-6.2c-34.3-54-68.5-107.9-103-161.8c-4.1-6.4-5-11.4,0.1-17.8
		c9.1-11.5,17.5-23.5,25.7-35.6c4.1-6,8.3-6.8,15.2-5.1c54.2,13.6,108.6,26.7,162.9,39.9c8.4,2,16.8,4,25.2,6.2
		c7.8,2,8.4,3.7,3.4,10.9c-7.6,10.9-15.7,21.5-23.1,32.6c-3.5,5.2-7.4,6.7-13.5,5.1c-18-4.9-36.1-9.4-54.1-14.2
		c-21.2-5.6-42.4-11.4-63.6-17.1C615.1,480.8,611.3,479.3,604.8,481.3z"/>
	<path class="st2" d="M746.1,1929c-4.6-7.3-4-14.8-5.5-21.8c-4.1-20.1-12.8-37.8-27.5-52.2c-5.2-5.2-10.9-9.7-18.6-10.9
		c-10.5-1.5-18.7,6.7-15.9,16.9c1.9,7,5.1,13.7,8.1,20.3c5.2,11.5,11.1,22.7,16.1,34.3c3.7,8.6,6.1,17.6,6.5,27.1
		c1.2,26.8-18.9,50.6-45.8,53.9c-12.9,1.6-25.2-0.4-37-5.9c-9.8-4.6-18.6-10.5-26.3-17.9c-23.2-22-39.7-48.1-49.8-78.5
		c-1.7-5.3-1-8.8,3.3-12.1c5.3-4,10.4-8.3,15.6-12.5c16.5-13.1,16.2-13.1,19.9,8.4c4.3,24.8,13.8,47.2,32.4,65c4.4,4.2,9,7.9,15,9.5
		c11.1,2.9,20.6-5,19-16.2c-0.7-5.2-2.7-10.3-4.9-15.1c-3.6-7.9-7.7-15.5-11.7-23.2c-6.2-11.9-11-24.3-13.4-37.5
		c-5.7-32,19.5-61.7,52.1-61.5c9.4,0,18.5,1.8,27.2,5.7c9.8,4.4,18.7,10.2,26.6,17.5c22,20.3,36.8,45.4,47.5,73
		c1.2,3.2,1.8,6.7-1.2,9.2C767.7,1912.8,758,1921.9,746.1,1929z"/>
	<path class="st2" d="M926.5,2044.5c14.2-0.4,27.9,2.9,40.8,8.3c34.1,14.1,61.5,36.6,82.6,67c4.6,6.6,4.5,11.6-0.4,17.8
		c-5.8,7.3-10.6,15.3-16.1,22.9c-4.9,6.8-8.8,6.1-12.4-2.2c-2.9-6.7-5.5-13.6-8.8-20.1c-7.4-14.5-17.6-26.6-31.8-35
		c-28.8-17-57.3-12.1-78.2,13.9c-1.3,1.6-2.4,3.2-3.6,4.8c-22.4,31.8-16.9,64,14.9,86.8c13.3,9.6,28.3,14.5,44.6,15.7
		c6,0.4,12,0.2,18,0.5c8.1,0.4,9.9,3.4,5.7,9.8c-5.9,8.9-12,17.6-18.1,26.4c-2.5,3.7-5.9,4.8-10.3,4c-11.2-2.2-21.9-5.6-32.4-9.9
		c-22.5-9.2-42.2-22.6-59.5-39.6c-7.6-7.5-14.2-15.9-19.6-25.1c-15.5-26.7-17.4-54.4-4.5-82.3c14-30.3,35.4-53,69.3-61.3
		C913.2,2045.2,919.8,2044.5,926.5,2044.5z"/>
	<path class="st2" d="M401.6,717.1c21.4,16,41.2,30.7,60.9,45.4c31.5,23.5,63,47,94.4,70.6c8.6,6.5,8.6,6.6,5.7,16.5
		c-3.7,12.8-7.5,25.5-11.3,38.3c-1.5,5-4.9,7.4-10.2,7.7c-17.3,1-34.6,2.2-51.9,3.3c-44.5,2.9-89.1,5.9-133.6,8.8
		c-3.2,0.2-6.5-0.3-9.5-0.4c-2.1-5.5,0.8-9.7,2.1-14c3.2-10.8,6.8-21.5,10.2-32.2c10.5-5.5,22.1-3.2,33.2-4.1
		c5.2-0.5,8.5-1.9,10-7.5c5-17.9,10.3-35.8,15.9-53.6c1.7-5.4,0.1-8.8-4.2-11.8c-7.1-4.9-14-10.2-21.1-15.1c-3.8-2.6-5.3-6-4-10.2
		C392.1,745.5,394.7,731.8,401.6,717.1z M439.3,855.5c21.5-1.1,42-2.2,62.5-3.4c0.5,0,1.2-0.5,1.4-0.9c0.3-0.5,0.3-1.3,0.5-2.6
		c-17-12.1-33.9-24.8-52.9-37.3C446.1,826.6,440.2,839.5,439.3,855.5z"/>
	<path class="st2" d="M2449.4,2065.5c20.9-21.4,40.8-41.7,61.2-62.6c10.4,5.8,17.2,14.8,25.1,22.6c2.2,2.2,1.4,4.9-0.4,7.2
		c-1.7,2.1-3.6,3.9-5.5,5.8c-26.8,27.7-53.6,55.5-80.5,83.2c-1.8,1.9-3.9,3.6-5.8,5.3c-12.3-8-127.9-118.9-142.6-136.9
		c10.9-11.3,21.9-22.6,33.8-34.9c19.8,19.1,38.9,37.5,58,55.9C2411.4,2028.9,2429.7,2047.1,2449.4,2065.5z"/>
	<path class="st4" d="M2096.6,1564.9c15.3,30.3,8.6,59.3-5.2,87.9c-1.1,2.3-3,4.4-5,6.2c-12.5,11-24.7,22.3-37.8,32.5
		c-13.4,10.4-29,15.8-46.3,15.8c-21.3,0.1-42.5,0.1-63.8,0.8c-54.2,1.7-106.9,11.5-158.1,29c-11.9,4.1-23.4,9.5-34.3,15.7
		c-8.4,4.8-15.9,5.2-24.5,1.6c-18.1-7.7-33.7-18.6-45.5-34.5c-5.1-6.8-5.1-11.5,0.6-17.6c4.5-4.8,9.6-9.1,14.4-13.8
		c4.2-4.1,8.3-8.3,12.4-12.5c-2.5-5.8-7.3-6.2-11.6-7.3c-19.5-5-39.6-4.2-59.5-4.8c-9-4.6-18.4-4.4-28.1-2.8
		c-2.7-0.3-5.5-0.6-8.2-0.9c-6.1-3.7-12.7-4.8-19.7-3.5c-1.4-0.2-2.9-0.4-4.3-0.6c-4.8-3.4-10-4.8-15.8-3.2c-2.7-0.3-5.3-0.7-8-1
		c-3.5-3.1-7.5-4.4-12.1-2.8c-2.7-0.4-5.3-0.8-8-1.1c-3.5-3.1-7.5-4.4-12.1-2.8c-2.6-0.4-5.3-0.8-7.9-1.2c-3.4-3.2-7.4-4.5-12-3
		c-35.7-5.6-69.4-18.3-104.2-27.3c-23.8-6.2-47.6-12.7-71.6-17.9c-32.6-7.1-63.4,0.4-92.8,14.7c-10.8,5.2-20.9,11.9-29.6,20.2
		c-5,4.8-10.9,7.5-17.4,9.2c-26.1,7.1-52.5,8.8-79.1,3.9c-5.9-1.1-12.1-1.9-17.3-4.6c-15.9-8.2-31.7-16.4-48.4-23.3
		c-10.7-4.4-13.2-14.1-8.7-25.1c1.5-3.6,3.9-6.9,5.9-10.4c1.6-2.8,5.2-4.4,5.2-8.6c-3.4-5.6-10.3-7.5-14.7-12.2
		c-4.6-4.8-8.7-10-13.4-14.7c-9-9-7.1-19.5-4.3-29.9c0.8-3.1,3.8-5.4,7.7-5.3c0.7,0,1.3,0.1,2,0.2c24.1,4.5,46-0.6,66.9-13.1
		c15.3-9.1,32.9-10.7,50.4-10c28.1,1.1,55.6,5.5,82.2,15.2c13.1,4.8,26.2,9.7,39.2,14.9c7.1,2.9,13.8,3.2,21.3,1.4
		c26.2-6.5,50.2-17.6,72.9-31.9c9-5.7,17.9-11.7,26.3-18.1c9.3-7.1,19.5-10.8,30.9-12.9c22.4-4.3,45.1-3.7,67.7-4.2
		c6.7-0.1,13.4-0.2,20,0.5c17.1,1.8,33-1.5,48.2-9.3c9.5-4.8,19.4-8.9,29-13.4c18.2-8.6,34.5-19.8,48.5-34.5
		c29.4-30.7,63.7-54.5,103.3-70.2c0.6-0.2,1.3-0.3,1.9-0.7c30.4-19.5,64.7-23.3,99.5-24.8c4-0.2,8-0.2,12-0.5c2.9-0.2,5-1.9,6-4.5
		c1.5-3.7,2.5-7.6,3.8-11.4c11.1-31.7,26-61.3,48.6-86.5c24.2-27,53.7-45.5,88.4-55.6c3.8-1.1,7.6-2.5,11.6-3.2
		c6.2-1,8.8-4.8,10.4-10.4c5.6-19.2,13.4-37.6,22.1-55.6c14.5-30.4,33.9-57,59-79.8c26.9-24.4,58.3-30.4,92.9-25.5
		c2,0.3,4,0.7,5.8,1.4c9.6,3.6,18,0.8,26.5-4.1c15.6-9,32.5-15.3,50.1-19.4c22-5.1,42.4-3.4,58.6,14.8c1.3,1.5,3.1,2.6,4.6,3.8
		c20.7,15.9,25.7,44.8,11.3,70.4c-7.6,13.6-18.2,24.8-30.4,34.1c-8.8,6.7-14.2,15-19.1,24.7c-12.5,25-24.8,50-43.5,71.4
		c-9.9,11.3-13,26.1-14.3,40.9c-2.2,24.1,0.1,47.9,5.3,71.5c11.9,53.9,14,108.2,6.3,162.8c-5.6,39.1-17.6,76.5-35.9,111.6
		c-17.9,34.3-41.8,63.3-75,83.9c-3.8,2.4-7.3,5.9-13.1,5c1.4-25.6,6.7-51.8-10.3-74.9c-0.2-1.2,0.1-2.8-0.6-3.7
		c-7.8-10.2-19.2-16-19.4-11.2C2085.2,1556,2091.4,1560.4,2096.6,1564.9z M1696.2,1697.1c-4.7,1.5-7.3,5.5-10.2,9.1
		c-1.2,1.5-2.3,3.5-0.2,5.1c0.8,0.6,2.5,0.4,3.5-0.1c4.6-2.5,9.9-4.2,11.7-9.9c15.3-10.5,30.1-21.6,45.8-31.3
		c22.7-14,46.8-24.8,74.3-24.4c1.8,0,4.1-0.8,3.2-3.6c-0.3-1-1.6-2.3-2.5-2.4c-12.6-2-24.9-1.2-37.2,2.8
		C1750.8,1653.5,1721.3,1671.6,1696.2,1697.1z M1164.5,1552.5c25.2,0.5,50.4,1.1,75.6,1.6c0.6,0,1.4-0.2,1.9-0.5
		c0.9-0.7,1.8-1.5,2.4-2.5c0.9-1.4,0.2-2.4-1-3.4c-4.3-3.8-9.1-5.3-14.7-3.4c-27.8-5.1-55.5-4.8-83.4-0.6
		c-30.5,4.6-59.4,14.1-86.2,29.4c-6.3,3.6-11.8,8.6-17.2,13.4c-4.6,4.1-7.2,9.5-8.1,15.6c-0.2,1.1,0.5,2.6,1.2,3.5
		c1.5,2,3.5,1.2,5.2,0.3c1.1-0.6,2.1-1.7,3.1-2.5C1078,1572.8,1119.3,1558,1164.5,1552.5z M1846.8,1305.6c-1.3,0.5-2,0.8-2.6,0.9
		c-4,0.2-8,0.5-11.9,0.5c-36.4,0.1-71.7,4.9-103.8,24c-1.7,1-3.8,1.3-5.6,2.1c-36.6,15.8-68.7,38-96.1,66.8
		c-12.1,12.8-25.7,23.3-41,31.4c-14.1,7.4-28.8,13.7-43.1,20.9c-14.1,7-28.6,9.9-44.4,8.4c-11.9-1.1-24-0.5-36-0.5
		c-16,0-31.9,1.2-47.8,3.5c-13.5,1.9-25.5,6.2-36.5,14.6c-11.6,8.8-24.2,16.5-36.8,23.9c-17.8,10.6-36.9,18.3-56.7,24.3
		c-11.9,3.6-23.4,4.4-34.8-1.7c-4.1-2.2-8.7-3.4-13-5.1c-26.7-10.6-54.3-18.1-82.8-21.6c-27.1-3.3-53.1-1.3-77.1,13.5
		c-10.4,6.4-22,9.3-34.3,9.4c-8,0-16-0.1-24-0.1c-4.1,0-5.9,2.5-6.2,6.2c-0.6,6-1.2,12,3.7,16.9c1.9,1.9,4.1,3.8,6.7,2.9
		c1.2-0.4,2.1-3.3,2.2-5.2c0.3-5.5,2.1-8.6,8.5-8.1c7.3,0.6,14.6,0.4,22,0.3c11.5-0.2,22.6-2.9,32.4-8.9
		c25.2-15.4,52.4-17.4,80.9-13.6c30.6,4.1,60.1,11.9,88.1,24.5c15.7,7.1,30.3,7,46.2,1.5c27.9-9.6,54.8-21.7,77.7-40.1
		c21.1-16.9,44.8-22.2,70.4-23.7c4-0.2,8-0.4,12-0.4c19.3,0.1,38.6,0,58,0.4c7.4,0.1,14.3-0.8,21.4-3.6
		c19.8-7.9,39.2-16.6,57.8-27.1c14.6-8.2,27.6-18.3,39.2-30.5c27.4-28.8,59.5-51.1,96.1-66.7c3.7-1.6,7.5-2.9,10.9-4.9
		c23.2-12.9,48.4-18.4,74.5-20c10.6-0.6,21.3-0.6,32-1c4.4-0.1,7.3-2.1,8.6-6.7c2-7,4.1-14.1,6.6-20.9
		c24.9-69.8,69.5-118.8,144.3-135.5c6.1-1.4,9-4.9,10.7-10.4c2-6.4,4-12.7,6.2-18.9c10.8-30.2,24.7-58.9,43.8-84.8
		c11.5-15.7,24.8-29.6,40.3-41.3c12.6-9.5,26.9-14.6,42.4-15.9c13.9-1.2,28.1-1.8,41.7,2.2c9.7,2.9,18.2,1.5,26.4-4.1
		c2.7-1.9,5.7-3.4,8.8-4.8c24.9-11.7,50.2-21.6,78.5-15.6c0.2-6-3.9-7.8-7.2-9.6c-12.4-6.5-25.7-6.4-39-3.6
		c-17.7,3.7-34.7,9.9-50.1,19.2c-10.5,6.3-20,7.4-32,5.1c-38.4-7.6-72.5,0.6-100.3,30.1c-14.7,15.6-27.7,32.3-38.5,50.8
		c-13.7,23.7-24.7,48.6-32.4,74.9c-2.4,8.4-6.4,12.6-15.9,14.8c-48.2,11.2-85.6,38.5-113.2,79.5c-13.5,20-23.5,41.7-30.5,64.8
		C1850.3,1294.8,1848.5,1300.4,1846.8,1305.6z"/>
	<path class="st3" d="M965.1,797.1c-1.8-5.6,1.3-10.5,2.7-15.5c10.7-38.9,27.4-74.9,53.1-106.3c15.3-18.7,32.9-34.9,55.2-45
		c5.8-2.6,8.7-0.3,7.9,6.3c-0.5,4-1.5,7.8-2.1,11.8c-2.8,16.9-0.2,33.1,6.3,48.9c3.4,8.1,7.9,15.4,16.2,19.4
		c0.8,0.9,1.4,2.1,2.4,2.7c1.3,0.9,2.5,0.3,2.9-1.3c0.1-0.3-0.7-1.1-1.2-1.3c-1.1-0.4-2.4-0.5-3.6-0.8c0.9-5-2-8.8-4.2-12.9
		c-5.5-10.1-8.1-21-7.9-32.5c0.7-32,11.8-59.4,36.7-80.4c0.9-0.8,2.4-0.8,3.7-1.2c1.2-0.2,2.4-0.4,3.6-0.7c0,0-0.6,0.2-0.6,0.2
		c3-1.3,6.2-2.5,9.1-4c32.5-16.8,32.5-16.9,70.2-16.9c43.4,0.1,86.5-3.2,129-12.2c34.6-7.3,69.4-15,100.2-33
		c14.7-8.6,26-7.1,38.8,0.7c5.7,3.5,11.6,6.7,16.7,10.9c6.2,5,12.1,10.8,14.2,18.8c0.8,3.3-0.9,6.5-5.6,5.3
		c-1.4,2.2-2.8,4.4-4.2,6.6c0,0,0.4-0.2,0.4-0.2c-2.9,0-4.6,1.1-4.2,4.3l0.2-0.2c-3.1-0.3-4.9,0.7-4.2,4.2l0.1,0
		c-5.1-2.7-8.9,0.4-12.6,3.1c-9.3,6.5-18.3,13.3-27.7,19.5c-23.7,15.4-48.9,26.9-77.6,29c-1,0.1-1.9,1.4-4,3.1
		c13.3,2.6,25.3,2.2,37.4-1.4c17.4-5.2,33.1-13.7,48.5-23.1c6.2-3.8,11.2-9.6,18.8-10.9c14.9,11.9,32.8,14.9,50.8,15.1
		c34.1,0.3,67.8,3.1,101.3,9.1c40.6,7.4,81.4,13.7,121.2,24.8c35.9,10,71.8,20,108.1,28.6c50.1,11.8,95.2,1.3,135.1-30.4
		c10.4-8.2,21.2-13,33.6-15.9c16.4-3.9,33-4.5,49.6-3.4c12,0.8,24.1,2.4,34.8,8.1c12.9,6.9,25.5,14.2,39.5,18.7
		c1.7,0.5,3.2,2.3,4.3,3.9c0.4,0.5-0.7,2.1-1.2,3.2c-0.7,9.3-8.5,13.1-14.8,17.5c-35.6,25.2-75.3,39.2-118.9,41
		c-18.6,0.8-37.2-0.2-55.9-0.1c-3.3,0-7.4-1.9-10.2,2c2.4,3.5,6,3.4,9,4.2c3.8,1.1,7.8,1.7,11.8,1.9c18.5,1.1,36.8,2.6,55.6,1.1
		c35.8-2.9,69.2-12.4,100.7-29c3.5-1.9,6.7-4.4,11.1-3.7c6.3,3.7,12.8,7.1,18.8,11.1c5.5,3.6,11.1,7.4,12.7,14.5
		c-3.9,13.9-3.9,13.9-16.7,14.1c-0.7,0-1.3,0-2,0c-18.6-1.3-35.6,3.6-51.5,13c-13.5,8-28.3,11-43.9,11.7
		c-39.4,1.8-77.2-6.1-112.7-22c-22.1-9.9-42.2-9.2-63.2,0.3c-0.6,0.3-1.2,0.5-1.9,0.7c-28.4,10.6-53.7,26.6-77.7,44.6
		c-7.2,5.3-14.7,9.3-23.2,10.9c-13.1,2.4-26.1,5-39.6,4.8c-21.3-0.2-42.7,0.2-64,0c-6.8-0.1-13.2,0.7-19.5,3.3
		c-39.4,16.6-78.3,33.7-107.6,66.9c-16.9,19.1-37.9,33.3-60,46.1c-18.5,10.7-38.5,18.2-57.4,27.9c-2.9,1.5-6.2,2.3-9.4,3.2
		c-20.5,6.4-41.6,9.2-63,9c-22.1-0.2-21.3,1-27,20.8c-9.6,33.9-26.5,64-50.1,90c-23.4,25.8-52.5,43.3-86.3,51.5
		c-13.7,3.3-19.8,10-23.4,22.9c-6.6,23.8-16.9,46.3-28.9,67.9c-12,21.7-26.7,41.5-45.1,58.2c-14,12.7-29.4,22.3-48.9,25.3
		c-14,2.2-27.7,3.1-41.6,0c-11.9-2.7-23.5-2.9-34.5,4.5c-7.1,4.7-15.3,8.2-23.3,11.4c-18.7,7.4-37.7,13.4-58.3,9.1
		c-1.2,0.4-2.8,1.5-3.5,1c-26.2-15.4-33.8-41.6-19.6-68.2c3.4-6.4,7.7-12.5,12.6-17.9c6.2-6.8,13.1-13.2,20.4-19
		c6.5-5.1,10.7-11.1,14.1-18.7c10.7-24.3,22.1-48.6,39.2-69.2c13.9-16.8,19.5-35.8,20.7-56.9c1.2-21.4-1.3-42.5-6.1-63.3
		c-14.1-61.6-15.7-123.6-6.5-186.1C967.7,807.2,969.1,801.8,965.1,797.1z"/>
	<path class="st4" d="M965.1,797.1c4,4.7,2.6,10.1,1.8,15.2c-9.3,62.4-7.7,124.4,6.5,186.1c4.8,20.8,7.3,41.9,6.1,63.3
		c-1.2,21.1-6.7,40-20.7,56.9c-17,20.6-28.4,44.9-39.2,69.2c-3.4,7.6-7.6,13.6-14.1,18.7c-7.3,5.7-14.2,12.1-20.4,19
		c-4.9,5.3-9.1,11.5-12.6,17.9c-14.2,26.6-6.5,52.7,19.6,68.2c0.7,0.4,2.3-0.7,3.5-1c-0.7,1.6-2.8,3-0.4,4.9
		c11.3,9.2,24.4,10,37.8,7.9c16.5-2.6,32.7-7.5,46.9-16.1c16.2-9.7,31.7-12.2,50.7-8.6c30.1,5.6,58.2-2.4,81.1-24
		c7.3-6.8,14.4-13.9,20.9-21.5c18.7-22,32.8-46.8,43.7-73.5c5.8-14.1,11-28.5,15.4-43.2c1.8-6.1,5-8.9,10.6-10.2
		c3.2-0.7,6.5-1.3,9.7-2.2c33.3-9.7,62.2-26.7,85.8-52.3c21.1-22.8,36.3-49.2,46.6-78.4c3.5-10,6.4-20.2,9.5-30
		c5.5-2.5,10.9-1.5,16.2-1.6c35.7-0.5,70.3-5.7,101.6-24.6c2.3-1.4,4.9-2.1,7.3-3.1c35.3-15.3,66.2-37.1,92.5-65
		c14.9-15.8,31.7-28.4,50.8-38c14.8-7.4,30.1-14.1,45.2-21.1c8.6-4,17.6-5.2,27.1-4.8c24,1.1,47.9,0.9,71.9-0.8
		c22.2-1.6,42.7-6.4,60.9-21.3c22.2-18.1,48-30.8,75-41c18.7-7.1,36.2-8.4,55.6,0.5c26,12,53.8,19.2,82.5,22.1c-0.5,2.9-2.3,4-5.1,4
		c-3.7,0-7.3,0.1-11,0.2c-26.7-5.8-53-12.8-78.1-23.7c-8.9-3.9-17.4-4.4-27-1.7c-25.2,7.2-48.6,18-70.4,32.3
		c-8.3,5.5-16.8,10.9-24.5,17.2c-11.3,9.2-24.3,13.3-38.4,15.3c-17.8,2.5-35.7,4.3-53.7,3.9c-10.7-0.2-21.4,0.7-32-0.3
		c-15.2-1.3-28.9,2.4-42.3,8.9c-12,5.8-24.1,11.3-35.9,17.3c-15.5,8-29.3,18-41.4,30.9c-29.5,31.5-64.2,55.3-103.7,73
		c-20.1,9-39.5,18.9-61.5,22.2c-15.2,2.2-30.3,4.2-45.7,4.1c-10.5,0-10.6,0.3-13.7,10.3c-8.2,26.9-19.5,52.3-35.7,75.4
		c-25.8,36.7-60,61.8-103.1,74.5c-3.2,0.9-6.3,2.3-9.6,2.8c-6.2,0.9-9.2,4.6-10.8,10.2c-5.1,18.7-12.7,36.4-20.6,54
		c-13.7,30.7-32.8,57.7-57.2,81c-24.3,23.2-53.1,31.9-86,28.7c-9.8-1-20-4.3-29.4-2.7c-8.7,1.5-16.4,8.5-24.9,12.1
		c-11,4.7-22.3,8.7-33.7,12.4c-10.3,3.3-21,3.5-31.7,2.3c-20.8-2.4-48.4-26.5-52.6-46.7c-3.5-16.9-1.1-33.1,8.7-47.8
		c7.8-11.7,17.4-22,28.4-30.6c7.6-5.9,12.4-12.9,16.6-21.6c12.4-25.7,24.6-51.6,43.4-73.7c10.2-12,13.5-27.2,14.6-42.8
		c1.6-23.4-0.5-46.6-6-69.4c-6.8-27.9-10.4-56.2-10.8-85c-0.2-15.9-0.1-31.9,0-47.8c0.2-18.7,3.3-37.1,7.4-55.3
		C964,805.1,964.5,801.1,965.1,797.1z"/>
	<path class="st4" d="M2156.6,653.8c0.4-1.1,1.6-2.7,1.2-3.2c-1.1-1.6-2.6-3.3-4.3-3.9c-14-4.4-26.6-11.8-39.5-18.7
		c-10.7-5.7-22.8-7.3-34.8-8.1c-16.7-1.1-33.2-0.4-49.6,3.4c-12.5,2.9-23.3,7.7-33.6,15.9c-39.9,31.6-84.9,42.1-135.1,30.4
		c-36.3-8.5-72.2-18.5-108.1-28.6c-39.8-11.1-80.6-17.5-121.2-24.8c-33.5-6.1-67.2-8.8-101.3-9.1c-17.9-0.2-35.9-3.3-50.8-15.1
		c4.6-4.3,9.3-8.6,13.9-13c1.8-1.7,4-3.2,3.5-6.2c0,0-0.1,0-0.1,0c3.1,0.3,4.6-1,4.2-4.2c0,0-0.2,0.2-0.2,0.2c3.2,0.3,4.7-1,4.2-4.3
		c0,0-0.4,0.2-0.4,0.2c4.1-0.4,6.3-2.1,4.2-6.6c4.7,1.2,6.5-2,5.6-5.3c-2.1-8.1-8-13.8-14.2-18.8c-5.2-4.2-11.1-7.4-16.7-10.9
		c-12.7-7.8-24.1-9.3-38.8-0.7c-30.7,17.9-65.5,25.7-100.2,33c-42.6,9-85.6,12.2-129,12.2c-37.7-0.1-37.7,0.1-70.2,16.9
		c-2.9,1.5-6.1,2.7-9.1,4c12.1-15.4,28.2-24,47.4-25.9c15.2-1.5,30.6-1.6,45.9-1.6c55.6-0.1,110-8.7,163.3-24.3
		c19.8-5.8,39.3-12.9,56.9-23.8c7.5-4.7,14.4-5.3,22.6-2.1c19.1,7.5,35.1,18.8,47.6,35.1c4.6,6.1,5,10.7,0.2,16.1
		c-4.9,5.4-10.5,10.1-15.7,15.4c-4.1,4.2-9.4,7.3-11.8,14.1c11.2,7.2,23.5,9,36,9.1c16.6,0.2,33.2,1.5,49.8,2.5
		c34.7,2.1,68.4,10.2,102.5,15.5c48.8,7.7,95.5,23.2,143.2,35.3c17.4,4.4,34.8,8.9,52.3,12.8c20,4.4,39.8,0.5,59.3-3.9
		c21.9-4.8,41.5-14.8,57.9-29.8c9.4-8.6,20.1-12.8,31.8-15.5c25.7-5.9,51.4-6.5,77.2-0.5c7.2,1.7,14.1,4.3,20.2,8.2
		c9.1,5.7,18.4,10.6,28.7,13.5c3.2,0.9,6.3,2.3,9.2,3.9c10.2,5.6,12.7,14,8.9,25.4c-2.4,7.2-8.3,11.9-11.8,18.8
		c9.7,8,19.4,15.7,28.1,25c9.3,9.9,8.4,20.3,5.7,31.5c-0.8,3.4-4.1,5.1-7.7,5.1c-8.7-0.1-17.3-0.5-25.9-0.5
		c-11.6-0.1-22.2,3.4-32.4,8.8c-8.2,4.4-16.7,8.1-25.1,12.2c-4.5-1-8.5,0-12,3c-13.4,0.2-26.8,0.3-40.2,0.5c0.8-4.2,4.1-4.3,7.4-4.5
		c9.7-0.5,19.7,1.8,28.9-3c11.5-0.4,22.3-3.9,31.7-9.9c18-11.5,37.6-14.9,58.5-13.9c11,0.5,15.4-5.2,12.3-15.6
		c-1.6-5.3-4.9-9.2-10.4-11c-1.7-7.1-7.3-10.9-12.7-14.5c-6-4-12.5-7.4-18.8-11.1c4.5-4.6,9.1-9.1,13.3-14c3.9-4.5,7.1-9.4,6.4-15.9
		C2164.1,654,2161.3,652.5,2156.6,653.8z"/>
	<path class="st3" d="M2084.4,764.9c-9.2,4.8-19.2,2.6-28.9,3c-3.3,0.2-6.6,0.2-7.4,4.5c-8.2,1-16.3,2-23.5-3.5
		c3.7-0.1,7.3-0.2,11-0.2c2.8,0,4.6-1.1,5.1-4C2055.2,764.8,2069.8,764.8,2084.4,764.9z"/>
	<path class="st3" d="M2096.6,1564.9c-5.2-4.5-11.3-8.9-11.1-16.5c0.2-4.8,11.5,1,19.4,11.2c0.7,0.9,0.4,2.4,0.6,3.7
		C2102.5,1563.8,2099.5,1564.4,2096.6,1564.9z"/>
	<path class="st3" d="M1604.4,1661.1c9.6-1.6,19.1-1.7,28.1,2.8C1622.9,1665,1613.4,1665.6,1604.4,1661.1z"/>
	<path class="st3" d="M1576.6,1656.7c7-1.3,13.6-0.2,19.7,3.5C1589.3,1661.3,1582.5,1661.4,1576.6,1656.7z"/>
	<path class="st3" d="M1556.5,1652.9c5.8-1.6,11-0.2,15.8,3.2C1566.6,1657.2,1561,1657.5,1556.5,1652.9z"/>
	<path class="st3" d="M1496.4,1641c4.6-1.5,8.6-0.2,12,3C1503.9,1645.3,1499.7,1644.9,1496.4,1641z"/>
	<path class="st3" d="M1516.4,1645.2c4.6-1.5,8.6-0.3,12.1,2.8C1523.9,1649.2,1519.7,1649.2,1516.4,1645.2z"/>
	<path class="st3" d="M1536.4,1649.1c4.6-1.6,8.6-0.3,12.1,2.8C1543.9,1653.2,1539.7,1653,1536.4,1649.1z"/>
	<path class="st3" d="M2088.3,771.9c3.5-3,7.5-4.1,12-3C2097,772.9,2092.9,773.3,2088.3,771.9z"/>
	<path class="st4" d="M1136.7,588.3c-1.2,0.2-2.4,0.4-3.6,0.7C1134.2,588.4,1135.4,588.1,1136.7,588.3z"/>
	<path class="st2" d="M1846.8,1305.6c1.6-5.2,3.5-10.9,5.2-16.5c7-23.1,17-44.7,30.5-64.8c27.6-41,65-68.3,113.2-79.5
		c9.4-2.2,13.4-6.4,15.9-14.8c7.6-26.3,18.6-51.2,32.4-74.9c10.7-18.5,23.8-35.2,38.5-50.8c27.8-29.6,61.9-37.7,100.3-30.1
		c12,2.4,21.5,1.3,32-5.1c15.4-9.3,32.4-15.5,50.1-19.2c13.3-2.8,26.6-2.8,39,3.6c3.3,1.7,7.4,3.6,7.2,9.6
		c-28.3-6-53.6,3.9-78.5,15.6c-3,1.4-6,2.9-8.8,4.8c-8.2,5.6-16.7,7-26.4,4.1c-13.6-4-27.7-3.4-41.7-2.2
		c-15.5,1.3-29.8,6.4-42.4,15.9c-15.5,11.8-28.8,25.7-40.3,41.3c-19.1,26-33,54.6-43.8,84.8c-2.2,6.3-4.3,12.6-6.2,18.9
		c-1.7,5.5-4.6,9-10.7,10.4c-74.7,16.7-119.3,65.7-144.3,135.5c-2.5,6.9-4.6,13.9-6.6,20.9c-1.3,4.6-4.2,6.5-8.6,6.7
		c-10.7,0.4-21.3,0.3-32,1c-26.2,1.6-51.4,7-74.5,20c-3.5,1.9-7.3,3.3-10.9,4.9c-36.6,15.6-68.7,38-96.1,66.7
		c-11.6,12.2-24.6,22.3-39.2,30.5c-18.6,10.4-38,19.1-57.8,27.1c-7.1,2.8-13.9,3.8-21.4,3.6c-19.3-0.4-38.6-0.3-58-0.4
		c-4,0-8,0.1-12,0.4c-25.6,1.5-49.3,6.7-70.4,23.7c-22.9,18.4-49.7,30.5-77.7,40.1c-15.9,5.4-30.5,5.5-46.2-1.5
		c-28-12.6-57.5-20.4-88.1-24.5c-28.5-3.8-55.7-1.9-80.9,13.6c-9.8,6-20.8,8.7-32.4,8.9c-7.3,0.1-14.7,0.3-22-0.3
		c-6.4-0.5-8.1,2.6-8.5,8.1c-0.1,1.8-1,4.7-2.2,5.2c-2.5,0.9-4.8-1.1-6.7-2.9c-4.8-4.8-4.2-10.9-3.7-16.9c0.4-3.7,2.2-6.2,6.2-6.2
		c8,0,16,0.1,24,0.1c12.3,0,23.9-3,34.3-9.4c24-14.8,50-16.9,77.1-13.5c28.6,3.5,56.1,11,82.8,21.6c4.3,1.7,8.9,2.9,13,5.1
		c11.4,6.1,22.9,5.3,34.8,1.7c19.8-6,38.9-13.8,56.7-24.3c12.6-7.5,25.2-15.1,36.8-23.9c11-8.4,23-12.6,36.5-14.6
		c15.9-2.3,31.8-3.5,47.8-3.5c12,0,24.1-0.6,36,0.5c15.8,1.5,30.3-1.4,44.4-8.4c14.3-7.1,29-13.4,43.1-20.9
		c15.4-8.1,28.9-18.7,41-31.4c27.3-28.9,59.5-51.1,96.1-66.8c1.8-0.8,3.9-1.1,5.6-2.1c32-19,67.4-23.9,103.8-24c4,0,8-0.3,11.9-0.5
		C1844.9,1306.4,1845.5,1306.1,1846.8,1305.6z"/>
	<path class="st2" d="M1164.5,1552.5c-45.2,5.5-86.5,20.3-121.2,50.8c-1,0.9-1.9,1.9-3.1,2.5c-1.7,0.9-3.7,1.7-5.2-0.3
		c-0.7-1-1.3-2.4-1.2-3.5c0.9-6.1,3.5-11.6,8.1-15.6c5.4-4.8,11-9.9,17.2-13.4c26.8-15.3,55.7-24.8,86.2-29.4
		c27.9-4.2,55.6-4.5,83.4,0.6c-2,4.4-6,4.6-9.9,4.6c-12.5,0-25-0.3-37.4,0C1175.6,1548.9,1169.4,1548,1164.5,1552.5z"/>
	<path class="st2" d="M1696.2,1697.1c25.1-25.4,54.6-43.6,88.6-54.7c12.2-4,24.6-4.8,37.2-2.8c1,0.2,2.2,1.4,2.5,2.4
		c0.9,2.7-1.5,3.6-3.2,3.6c-27.6-0.4-51.6,10.4-74.3,24.4c-15.7,9.7-30.6,20.8-45.8,31.3C1699.5,1699.9,1697.9,1698.5,1696.2,1697.1
		z"/>
	<path class="st3" d="M1164.5,1552.5c4.9-4.5,11.1-3.6,16.9-3.7c12.5-0.3,24.9,0,37.4,0c4,0,8-0.1,9.9-4.6
		c5.6-1.9,10.4-0.3,14.7,3.4c1.2,1,1.9,2,1,3.4c-0.6,1-1.5,1.8-2.4,2.5c-0.5,0.4-1.2,0.6-1.9,0.5
		C1214.9,1553.5,1189.7,1553,1164.5,1552.5z"/>
	<path class="st3" d="M1696.2,1697.1c1.6,1.4,3.2,2.8,4.9,4.2c-1.9,5.7-7.2,7.4-11.7,9.9c-0.9,0.5-2.7,0.7-3.5,0.1
		c-2.2-1.5-1-3.6,0.2-5.1C1688.9,1702.6,1691.5,1698.6,1696.2,1697.1z"/>
	<path class="st2" d="M2084.4,764.9c-14.6-0.1-29.2-0.2-43.8-0.2c-28.7-3-56.5-10.2-82.5-22.1c-19.3-8.9-36.8-7.6-55.6-0.5
		c-26.9,10.2-52.7,22.9-75,41c-18.2,14.9-38.7,19.7-60.9,21.3c-23.9,1.7-47.9,1.9-71.9,0.8c-9.6-0.4-18.5,0.8-27.1,4.8
		c-15.1,7-30.3,13.7-45.2,21.1c-19.2,9.6-36,22.2-50.8,38c-26.2,27.9-57.1,49.7-92.5,65c-2.4,1.1-5.1,1.8-7.3,3.1
		c-31.3,18.8-65.8,24.1-101.6,24.6c-5.3,0.1-10.7-0.9-16.2,1.6c-3.1,9.8-6,20-9.5,30c-10.3,29.2-25.5,55.5-46.6,78.4
		c-23.6,25.6-52.5,42.6-85.8,52.3c-3.2,0.9-6.5,1.5-9.7,2.2c-5.6,1.3-8.7,4.1-10.6,10.2c-4.4,14.6-9.7,29-15.4,43.2
		c-10.9,26.6-25,51.5-43.7,73.5c-6.4,7.6-13.6,14.6-20.9,21.5c-23,21.6-51,29.6-81.1,24c-19-3.6-34.5-1.1-50.7,8.6
		c-14.2,8.6-30.4,13.5-46.9,16.1c-13.5,2.1-26.6,1.3-37.8-7.9c-2.4-1.9-0.2-3.3,0.4-4.9c20.6,4.3,39.6-1.7,58.3-9.1
		c8-3.2,16.2-6.6,23.3-11.4c11.1-7.3,22.6-7.1,34.5-4.5c13.9,3.1,27.5,2.2,41.6,0c19.4-3,34.9-12.6,48.9-25.3
		c18.4-16.7,33.1-36.5,45.1-58.2c12-21.6,22.3-44.1,28.9-67.9c3.6-12.9,9.7-19.5,23.4-22.9c33.7-8.2,62.9-25.7,86.3-51.5
		c23.6-26,40.4-56.2,50.1-90c5.6-19.8,4.9-21,27-20.8c21.5,0.2,42.5-2.6,63-9c3.2-1,6.5-1.7,9.4-3.2c18.9-9.8,38.9-17.2,57.4-27.9
		c22.1-12.8,43.1-27,60-46.1c29.3-33.1,68.2-50.2,107.6-66.9c6.2-2.6,12.7-3.4,19.5-3.3c21.3,0.2,42.7-0.2,64,0
		c13.4,0.1,26.5-2.4,39.6-4.8c8.6-1.6,16-5.6,23.2-10.9c24.1-18,49.4-34,77.7-44.6c0.6-0.2,1.3-0.5,1.9-0.7
		c21-9.4,41.1-10.2,63.2-0.3c35.5,15.9,73.3,23.8,112.7,22c15.6-0.7,30.4-3.7,43.9-11.7c15.9-9.4,32.9-14.3,51.5-13c0.7,0,1.3,0,2,0
		c12.9-0.2,12.9-0.2,16.7-14.1c5.5,1.8,8.8,5.7,10.4,11c3.1,10.4-1.3,16.1-12.3,15.6c-20.9-1-40.4,2.4-58.5,13.9
		C2106.7,761,2095.9,764.5,2084.4,764.9z"/>
	<path class="st2" d="M2156.6,653.8c4.7-1.4,7.5,0.2,8.1,5.2c0.7,6.4-2.5,11.4-6.4,15.9c-4.2,4.9-8.9,9.3-13.3,14
		c-4.4-0.8-7.5,1.8-11.1,3.7c-31.6,16.6-65,26.1-100.7,29c-18.8,1.5-37.1,0-55.6-1.1c-4-0.2-8-0.8-11.8-1.9c-3-0.9-6.6-0.7-9-4.2
		c2.8-3.9,6.9-2,10.2-2c18.6-0.1,37.3,0.9,55.9,0.1c43.6-1.9,83.3-15.8,118.9-41C2148,666.9,2155.8,663.2,2156.6,653.8z"/>
	<path class="st2" d="M1496.8,572.8c0.4,3-1.8,4.5-3.5,6.2c-4.6,4.4-9.2,8.7-13.9,13c-7.6,1.3-12.6,7.2-18.8,10.9
		c-15.4,9.4-31.1,17.9-48.5,23.1c-12,3.6-24.1,4-37.4,1.4c2.1-1.7,3-3,4-3.1c28.7-2.1,53.9-13.5,77.6-29c9.5-6.2,18.5-13,27.7-19.5
		C1488,573.2,1491.7,570.1,1496.8,572.8z"/>
	<path class="st2" d="M1104.8,715.9c1.2,0.2,2.4,0.4,3.6,0.8c0.5,0.2,1.3,0.9,1.2,1.3c-0.3,1.5-1.5,2.1-2.9,1.3
		c-1-0.6-1.6-1.8-2.4-2.7C1104.3,716.5,1104.8,715.9,1104.8,715.9z"/>
	<path class="st2" d="M1508.7,558.2c2.1,4.5-0.1,6.1-4.2,6.6C1505.9,562.6,1507.3,560.4,1508.7,558.2z"/>
	<path class="st2" d="M1504.8,564.6c0.6,3.3-0.9,4.7-4.2,4.3C1500.3,565.7,1502,564.6,1504.8,564.6z"/>
	<path class="st2" d="M1500.9,568.7c0.5,3.2-1,4.5-4.2,4.2C1496,569.4,1497.8,568.4,1500.9,568.7z"/>
</g>
</svg>
